<?xml version="1.0" standalone="no"?>
<!DOCTYPE svg PUBLIC "-//W3C//DTD SVG 20010904//EN"
 "http://www.w3.org/TR/2001/REC-SVG-20010904/DTD/svg10.dtd">
<svg version="1.0" xmlns="http://www.w3.org/2000/svg"
 width="1280.000000pt" height="1266.000000pt" viewBox="0 0 1280.000000 1266.000000"
 preserveAspectRatio="xMidYMid meet">
<g transform="translate(0.000000,1266.000000) scale(0.100000,-0.100000)"
fill="#000000" stroke="none">
<path d="M4971 12130 c-198 -92 -360 -276 -447 -509 -57 -151 -77 -273 -78
-466 0 -158 7 -222 40 -377 5 -23 -1 -35 -43 -75 -97 -94 -205 -133 -368 -134
-176 0 -358 49 -584 157 -62 30 -125 54 -139 54 -56 0 -167 -76 -243 -167
-175 -210 -185 -577 -23 -872 45 -83 80 -127 164 -216 38 -39 74 -88 83 -112
29 -74 66 -217 83 -319 23 -132 23 -411 1 -550 -94 -580 -430 -1139 -932
-1550 -105 -87 -400 -290 -648 -446 -365 -230 -665 -430 -782 -521 -224 -174
-409 -360 -541 -543 -73 -102 -189 -325 -223 -430 -26 -81 -21 -115 29 -214
57 -112 150 -191 281 -237 65 -24 90 -27 204 -27 110 -1 142 3 205 22 128 41
208 87 291 171 78 78 107 124 140 220 44 126 204 278 394 373 281 141 663 155
1008 37 167 -57 344 -158 478 -271 85 -72 201 -219 256 -325 93 -177 131 -368
120 -603 -11 -245 -57 -443 -216 -939 -176 -545 -214 -727 -215 -1016 -1 -178
14 -383 35 -480 47 -213 235 -386 467 -431 93 -18 149 -17 235 1 161 34 284
130 358 280 42 85 43 89 50 219 11 199 46 331 132 500 230 452 689 704 1093
601 32 -9 158 -65 279 -124 250 -124 368 -175 523 -225 321 -104 596 -112 854
-25 73 25 108 32 165 31 314 -5 611 -243 722 -577 26 -79 44 -218 37 -280 -10
-82 12 -671 28 -770 32 -190 94 -324 201 -430 74 -74 176 -135 226 -135 56 0
188 50 264 101 171 115 287 315 345 598 39 189 45 337 32 789 -15 499 -30 771
-82 1437 -68 875 -72 950 -55 1015 116 450 444 807 1085 1187 189 112 544 309
810 448 415 219 689 387 900 555 263 208 511 508 616 747 30 67 28 99 -11 180
-48 97 -152 178 -269 209 -75 20 -209 18 -302 -6 -169 -43 -299 -131 -399
-270 -283 -396 -711 -536 -1203 -394 -190 55 -364 159 -524 313 -176 168 -299
360 -372 582 -52 158 -70 284 -63 453 7 159 7 162 132 591 145 501 181 701
172 963 -6 188 -33 306 -101 446 -147 303 -323 404 -776 446 -313 29 -449 67
-545 152 -57 50 -91 107 -120 203 -100 331 -314 575 -570 651 -81 24 -239 24
-319 0 -132 -39 -209 -92 -390 -264 -59 -57 -131 -122 -160 -144 -111 -89
-258 -133 -441 -133 -110 0 -110 0 -199 44 -126 61 -231 167 -359 361 -109
167 -200 276 -293 354 -167 138 -358 182 -503 116z"/>
</g>
</svg>
